<svg xmlns="http://www.w3.org/2000/svg" width="117" height="104" viewBox="0 0 117 104">
    <g fill="none" fill-rule="evenodd">
        <path fill="#F2F2F2" d="M0 0h117v104H0z"/>
        <g fill="#D0D0D0">
            <path d="M27 63h62v2H27zM27 67h56v2H27zM27 71h62v2H27zM27 75h58v2H27z"/>
        </g>
        <g fill="#D0D0D0">
            <path d="M27 81h61v1H27zM27 84h55v1H27zM27 90h61v1H27zM27 93h57v1H27zM27 96h60v1H27zM27 87h51v1H27z"/>
        </g>
        <g fill="#13807E">
            <path d="M10 7h29v1H10zM10 10h26v1H10zM10 16h29v1H10zM10 19h27v1H10zM10 22h29v1H10zM10 13h24v1H10z"/>
        </g>
        <g fill="#13807E">
            <path d="M44 7h29v1H44zM44 10h26v1H44zM44 16h29v1H44zM44 19h27v1H44zM44 22h29v1H44zM44 13h24v1H44z"/>
        </g>
        <g fill="#13807E">
            <path d="M78 7h29v1H78zM78 10h26v1H78zM78 16h29v1H78zM78 19h27v1H78zM78 22h29v1H78zM78 13h24v1H78z"/>
        </g>
        <path fill="#D0D0D0" d="M0 28h117v30H0z"/>
        <g fill="#FFF" fill-rule="nonzero">
            <path d="M60.286 49.474c-.143 0-.286 0-.429-.029-.171-.028-.371-.057-.543-.142a1.182 1.182 0 0 0-.628 0 3.031 3.031 0 0 1-.543.142c-.143.029-.286.029-.429.029-1.971 0-3.828-1.873-4.314-4.34-.314-1.532-.057-3.035.714-4.085.543-.737 1.257-1.22 2.115-1.333.6-.085 1.228 0 1.828.284a2.488 2.488 0 0 0 1.914 0 3.199 3.199 0 0 1 1.829-.284c.829.113 1.571.596 2.114 1.333.772 1.078 1.029 2.553.715 4.085-.543 2.467-2.4 4.34-4.343 4.34zM59 48.679c.171 0 .343.029.514.085.143.057.286.086.429.114.114.028.228.028.343.028 1.685 0 3.314-1.673 3.743-3.886.285-1.361.028-2.723-.629-3.659a2.546 2.546 0 0 0-1.714-1.106c-.486-.057-1 0-1.486.227-.714.34-1.657.34-2.371 0-.486-.227-1-.312-1.486-.227-.686.085-1.286.482-1.714 1.106-.715.908-.943 2.298-.658 3.66.458 2.212 2.058 3.885 3.743 3.885.115 0 .229 0 .343-.028.143-.028.286-.057.429-.114.171-.056.343-.085.514-.085zM57.2 39.432c-1.571 0-3.2-.652-3.257-.68-.086-.029-.143-.114-.172-.2-.028-.113.029-.198.086-.254.086-.086 2.257-2.156 4.229-2.156.828 0 1.514.369 2.028 1.05.057.056.057.141.057.226-.314 1.333-1.342 2.014-2.971 2.014zm-2.6-1.05c.571.2 1.6.483 2.6.483 1.314 0 2.086-.482 2.371-1.418-.4-.483-.885-.71-1.485-.71-1.315-.028-2.829 1.078-3.486 1.646z"/>
            <path d="M59 40.652a.285.285 0 0 1-.286-.284c0-.113.115-2.865 2.229-4.056.143-.085.314-.028.4.113.086.142.028.313-.114.398-1.829 1.02-1.943 3.517-1.943 3.545 0 .17-.143.284-.286.284z"/>
        </g>
    </g>
</svg>
